<?xml version="1.0" encoding="UTF-8"?><svg id="a" xmlns="http://www.w3.org/2000/svg" viewBox="0 0 42.29 49.75"><defs><style>.b{fill:#f6ad58;}.c{fill:#979797;}.d{fill:#a0a0a0;}.e{fill:#b5b5b5;}.f{fill:#ccc;}.g{fill:#d69245;}.h{fill:#878787;}</style></defs><rect x="39.8" y="44.78" width="2.49" height="2.49"/><rect x="39.8" y="42.29" width="2.49" height="2.49"/><rect x="37.31" y="47.27" width="2.49" height="2.48"/><rect class="b" x="37.31" y="44.78" width="2.49" height="2.49"/><rect class="b" x="37.31" y="42.29" width="2.49" height="2.49"/><rect x="37.31" y="39.8" width="2.49" height="2.49"/><rect x="34.83" y="44.78" width="2.48" height="2.49"/><rect class="b" x="34.83" y="42.29" width="2.48" height="2.49"/><rect x="34.83" y="39.8" width="2.48" height="2.49"/><rect class="f" x="34.83" y="4.98" width="2.48" height="2.49"/><rect x="32.34" y="47.27" width="2.49" height="2.48"/><rect class="b" x="32.34" y="44.78" width="2.49" height="2.49"/><rect class="b" x="32.34" y="42.29" width="2.49" height="2.49"/><rect x="32.34" y="39.8" width="2.49" height="2.49"/><rect class="d" x="32.34" y="7.47" width="2.49" height="2.48"/><rect class="e" x="32.34" y="4.98" width="2.49" height="2.49"/><rect class="f" x="32.34" y="2.49" width="2.49" height="2.49"/><rect x="29.85" y="44.78" width="2.49" height="2.49"/><rect class="b" x="29.85" y="42.29" width="2.49" height="2.49"/><rect x="29.85" y="39.8" width="2.49" height="2.49"/><rect x="29.85" y="37.32" width="2.49" height="2.48"/><rect x="29.85" y="27.37" width="2.49" height="2.48"/><rect x="29.85" y="24.88" width="2.49" height="2.49"/><rect x="29.85" y="22.39" width="2.49" height="2.49"/><rect x="29.85" y="19.9" width="2.49" height="2.49"/><rect class="f" x="29.85" y="17.42" width="2.49" height="2.48"/><rect class="f" x="29.85" y="14.93" width="2.49" height="2.49"/><rect class="d" x="29.85" y="12.44" width="2.49" height="2.49"/><rect class="d" x="29.85" y="9.95" width="2.49" height="2.49"/><rect class="e" x="29.85" y="7.47" width="2.49" height="2.48"/><rect class="e" x="29.85" y="4.98" width="2.49" height="2.49"/><rect class="e" x="29.85" y="2.49" width="2.49" height="2.49"/><rect class="f" x="29.85" width="2.49" height="2.49"/><rect x="27.36" y="47.27" width="2.49" height="2.48"/><rect class="b" x="27.36" y="44.78" width="2.49" height="2.49"/><rect class="b" x="27.36" y="42.29" width="2.49" height="2.49"/><rect x="27.36" y="39.8" width="2.49" height="2.49"/><rect class="c" x="27.36" y="37.32" width="2.49" height="2.48"/><rect x="27.36" y="34.83" width="2.49" height="2.49"/><rect x="27.36" y="32.34" width="2.49" height="2.49"/><rect x="27.36" y="29.85" width="2.49" height="2.49"/><rect class="b" x="27.36" y="27.37" width="2.49" height="2.48"/><rect class="b" x="27.36" y="24.88" width="2.49" height="2.49"/><rect class="b" x="27.36" y="22.39" width="2.49" height="2.49"/><rect x="27.36" y="19.9" width="2.49" height="2.49"/><rect class="e" x="27.36" y="17.42" width="2.49" height="2.48"/><rect class="e" x="27.36" y="14.93" width="2.49" height="2.49"/><rect class="e" x="27.36" y="12.44" width="2.49" height="2.49"/><rect class="d" x="27.36" y="9.95" width="2.49" height="2.49"/><rect class="e" x="27.36" y="7.47" width="2.49" height="2.48"/><rect class="e" x="27.36" y="4.98" width="2.49" height="2.49"/><rect class="e" x="27.36" y="2.49" width="2.49" height="2.49"/><rect class="f" x="27.36" width="2.49" height="2.49"/><rect x="24.87" y="44.78" width="2.49" height="2.49"/><rect x="24.87" y="42.29" width="2.49" height="2.49"/><rect x="24.87" y="39.8" width="2.49" height="2.49"/><rect x="24.87" y="37.32" width="2.49" height="2.48"/><rect class="b" x="24.87" y="34.83" width="2.49" height="2.49"/><rect class="b" x="24.87" y="32.34" width="2.49" height="2.49"/><rect class="b" x="24.87" y="29.85" width="2.49" height="2.49"/><rect class="b" x="24.87" y="27.37" width="2.49" height="2.48"/><rect x="24.87" y="24.88" width="2.49" height="2.49"/><rect class="b" x="24.87" y="22.39" width="2.49" height="2.49"/><rect x="24.87" y="19.9" width="2.49" height="2.49"/><rect class="e" x="24.87" y="17.42" width="2.49" height="2.48"/><rect class="e" x="24.87" y="14.93" width="2.49" height="2.49"/><rect class="e" x="24.87" y="12.44" width="2.49" height="2.49"/><rect class="d" x="24.87" y="9.95" width="2.49" height="2.49"/><rect class="e" x="24.87" y="7.47" width="2.49" height="2.48"/><rect class="e" x="24.87" y="4.98" width="2.49" height="2.49"/><rect class="e" x="24.87" y="2.49" width="2.49" height="2.49"/><rect class="f" x="24.87" width="2.49" height="2.49"/><rect x="22.39" y="39.8" width="2.48" height="2.49"/><rect class="g" x="22.39" y="37.32" width="2.48" height="2.48"/><rect class="b" x="22.39" y="34.83" width="2.48" height="2.49"/><rect class="b" x="22.39" y="32.34" width="2.48" height="2.49"/><rect class="b" x="22.39" y="29.85" width="2.48" height="2.49"/><rect class="b" x="22.39" y="27.37" width="2.48" height="2.48"/><rect x="22.39" y="24.88" width="2.48" height="2.49"/><rect class="b" x="22.39" y="22.39" width="2.48" height="2.49"/><rect x="22.39" y="19.9" width="2.48" height="2.49"/><rect class="e" x="22.39" y="17.42" width="2.48" height="2.48"/><rect class="e" x="22.39" y="14.93" width="2.48" height="2.49"/><rect class="e" x="22.39" y="12.44" width="2.48" height="2.49"/><rect class="d" x="22.39" y="9.95" width="2.48" height="2.49"/><rect class="e" x="22.39" y="7.47" width="2.48" height="2.48"/><rect class="e" x="22.39" y="4.98" width="2.48" height="2.49"/><rect class="e" x="22.39" y="2.49" width="2.48" height="2.49"/><rect class="f" x="22.39" width="2.48" height="2.49"/><rect x="19.9" y="39.8" width="2.49" height="2.49"/><rect class="g" x="19.9" y="37.32" width="2.49" height="2.48"/><rect class="b" x="19.9" y="34.83" width="2.49" height="2.49"/><rect x="19.9" y="32.34" width="2.49" height="2.49"/><rect class="b" x="19.9" y="29.85" width="2.49" height="2.49"/><rect class="b" x="19.9" y="27.37" width="2.49" height="2.48"/><rect class="b" x="19.9" y="24.88" width="2.49" height="2.49"/><rect class="b" x="19.9" y="22.39" width="2.49" height="2.49"/><rect x="19.9" y="19.9" width="2.49" height="2.49"/><rect class="e" x="19.9" y="17.42" width="2.49" height="2.48"/><rect class="e" x="19.9" y="14.93" width="2.49" height="2.49"/><rect class="e" x="19.9" y="12.44" width="2.49" height="2.49"/><rect class="d" x="19.9" y="9.95" width="2.49" height="2.49"/><rect class="e" x="19.9" y="7.47" width="2.49" height="2.48"/><rect class="e" x="19.9" y="4.98" width="2.49" height="2.49"/><rect class="e" x="19.9" y="2.49" width="2.49" height="2.49"/><rect class="f" x="19.9" width="2.49" height="2.49"/><rect x="17.41" y="39.8" width="2.49" height="2.49"/><rect class="g" x="17.41" y="37.32" width="2.49" height="2.48"/><rect class="g" x="17.41" y="34.83" width="2.49" height="2.49"/><rect x="17.41" y="32.34" width="2.49" height="2.49"/><rect class="b" x="17.41" y="29.85" width="2.49" height="2.49"/><rect class="b" x="17.41" y="27.37" width="2.49" height="2.48"/><rect class="b" x="17.41" y="24.88" width="2.49" height="2.49"/><rect class="b" x="17.41" y="22.39" width="2.49" height="2.49"/><rect x="17.41" y="19.9" width="2.49" height="2.49"/><rect class="e" x="17.41" y="17.42" width="2.49" height="2.48"/><rect class="e" x="17.41" y="14.93" width="2.49" height="2.49"/><rect class="e" x="17.41" y="12.44" width="2.49" height="2.49"/><rect class="d" x="17.41" y="9.95" width="2.49" height="2.49"/><rect class="e" x="17.41" y="7.47" width="2.49" height="2.48"/><rect class="e" x="17.41" y="4.98" width="2.49" height="2.49"/><rect class="e" x="17.41" y="2.49" width="2.49" height="2.49"/><rect class="f" x="17.41" width="2.49" height="2.49"/><rect x="14.92" y="44.78" width="2.49" height="2.49"/><rect x="14.92" y="42.29" width="2.49" height="2.49"/><rect x="14.92" y="39.8" width="2.49" height="2.49"/><rect class="g" x="14.92" y="37.32" width="2.49" height="2.48"/><rect class="g" x="14.92" y="34.83" width="2.49" height="2.49"/><rect class="g" x="14.92" y="32.34" width="2.49" height="2.49"/><rect class="g" x="14.92" y="29.85" width="2.49" height="2.49"/><rect class="b" x="14.92" y="27.37" width="2.49" height="2.48"/><rect x="14.92" y="24.88" width="2.49" height="2.49"/><rect class="b" x="14.92" y="22.39" width="2.49" height="2.49"/><rect x="14.92" y="19.9" width="2.49" height="2.49"/><rect class="e" x="14.92" y="17.42" width="2.49" height="2.48"/><rect class="e" x="14.92" y="14.93" width="2.49" height="2.49"/><rect class="e" x="14.92" y="12.44" width="2.49" height="2.49"/><rect class="d" x="14.92" y="9.95" width="2.49" height="2.49"/><rect class="e" x="14.92" y="7.47" width="2.49" height="2.48"/><rect class="e" x="14.92" y="4.98" width="2.49" height="2.49"/><rect class="e" x="14.92" y="2.49" width="2.49" height="2.49"/><rect class="f" x="14.92" width="2.49" height="2.49"/><rect x="12.44" y="47.27" width="2.48" height="2.48"/><rect class="g" x="12.44" y="44.78" width="2.48" height="2.49"/><rect class="g" x="12.44" y="42.29" width="2.48" height="2.49"/><rect x="12.44" y="39.8" width="2.48" height="2.49"/><rect x="12.44" y="37.32" width="2.48" height="2.48"/><rect class="g" x="12.44" y="34.83" width="2.48" height="2.49"/><rect class="g" x="12.44" y="32.34" width="2.48" height="2.49"/><rect class="g" x="12.44" y="29.85" width="2.48" height="2.49"/><rect class="g" x="12.44" y="27.37" width="2.48" height="2.48"/><rect x="12.44" y="24.88" width="2.48" height="2.49"/><rect class="g" x="12.44" y="22.39" width="2.48" height="2.49"/><rect x="12.44" y="19.9" width="2.48" height="2.49"/><rect class="e" x="12.44" y="17.42" width="2.48" height="2.48"/><rect class="e" x="12.44" y="14.93" width="2.48" height="2.49"/><rect class="e" x="12.44" y="12.44" width="2.48" height="2.49"/><rect class="d" x="12.44" y="9.95" width="2.48" height="2.49"/><rect class="e" x="12.44" y="7.47" width="2.48" height="2.48"/><rect class="e" x="12.44" y="4.98" width="2.48" height="2.49"/><rect class="e" x="12.44" y="2.49" width="2.48" height="2.49"/><rect class="h" x="12.44" width="2.48" height="2.49"/><rect x="9.95" y="44.78" width="2.49" height="2.49"/><rect class="g" x="9.95" y="42.29" width="2.49" height="2.49"/><rect x="9.95" y="39.8" width="2.49" height="2.49"/><rect class="c" x="9.95" y="37.32" width="2.49" height="2.48"/><rect x="9.95" y="34.83" width="2.49" height="2.49"/><rect x="9.95" y="32.34" width="2.49" height="2.49"/><rect x="9.95" y="29.85" width="2.49" height="2.49"/><rect class="g" x="9.95" y="27.37" width="2.49" height="2.48"/><rect class="g" x="9.95" y="24.88" width="2.49" height="2.49"/><rect class="g" x="9.95" y="22.39" width="2.49" height="2.49"/><rect x="9.95" y="19.9" width="2.49" height="2.49"/><rect class="e" x="9.95" y="17.42" width="2.49" height="2.48"/><rect class="e" x="9.95" y="14.93" width="2.49" height="2.49"/><rect class="e" x="9.95" y="12.44" width="2.49" height="2.49"/><rect class="d" x="9.95" y="9.95" width="2.49" height="2.49"/><rect class="e" x="9.95" y="7.47" width="2.49" height="2.48"/><rect class="e" x="9.95" y="4.98" width="2.49" height="2.49"/><rect class="e" x="9.95" y="2.49" width="2.49" height="2.49"/><rect class="h" x="9.95" width="2.49" height="2.49"/><rect x="7.46" y="47.27" width="2.49" height="2.48"/><rect class="g" x="7.46" y="44.78" width="2.49" height="2.49"/><rect class="g" x="7.46" y="42.29" width="2.49" height="2.49"/><rect x="7.46" y="39.8" width="2.49" height="2.49"/><rect x="7.46" y="37.32" width="2.49" height="2.48"/><rect x="7.46" y="27.37" width="2.49" height="2.48"/><rect x="7.46" y="24.88" width="2.49" height="2.49"/><rect x="7.46" y="22.39" width="2.49" height="2.49"/><rect x="7.46" y="19.9" width="2.49" height="2.49"/><rect class="h" x="7.46" y="17.42" width="2.49" height="2.48"/><rect class="h" x="7.46" y="14.93" width="2.49" height="2.49"/><rect class="h" x="7.46" y="12.44" width="2.49" height="2.49"/><rect class="h" x="7.46" y="9.95" width="2.49" height="2.49"/><rect class="e" x="7.46" y="7.47" width="2.49" height="2.48"/><rect class="e" x="7.46" y="4.98" width="2.49" height="2.49"/><rect class="e" x="7.46" y="2.49" width="2.49" height="2.49"/><rect class="h" x="7.46" width="2.49" height="2.49"/><rect x="4.97" y="44.78" width="2.49" height="2.49"/><rect class="g" x="4.97" y="42.29" width="2.49" height="2.49"/><rect x="4.97" y="39.8" width="2.49" height="2.49"/><rect class="h" x="4.97" y="7.47" width="2.49" height="2.48"/><rect class="e" x="4.97" y="4.98" width="2.49" height="2.49"/><rect class="h" x="4.97" y="2.49" width="2.49" height="2.49"/><rect x="2.49" y="47.27" width="2.48" height="2.48"/><rect class="g" x="2.49" y="44.78" width="2.48" height="2.49"/><rect class="g" x="2.49" y="42.29" width="2.48" height="2.49"/><rect x="2.49" y="39.8" width="2.48" height="2.49"/><rect class="h" x="2.49" y="4.98" width="2.48" height="2.49"/><rect y="44.78" width="2.49" height="2.49"/><rect y="42.29" width="2.49" height="2.49"/></svg>