<?xml version="1.0" encoding="UTF-8"?><svg id="a" xmlns="http://www.w3.org/2000/svg" viewBox="0 0 32.67 44.55"><defs><style>.b{fill:none;}</style></defs><polygon class="b" points="17.82 23.76 14.85 23.76 14.85 26.73 14.85 29.7 17.82 29.7 17.82 26.73 17.82 23.76"/><polygon class="b" points="20.79 11.88 17.82 11.88 14.85 11.88 11.88 11.88 11.88 14.85 11.88 17.82 8.91 17.82 8.91 20.79 8.91 23.76 8.91 26.73 8.91 29.7 8.91 32.67 11.88 32.67 11.88 35.64 14.85 35.64 14.85 32.67 14.85 29.7 11.88 29.7 11.88 26.73 11.88 23.76 14.85 23.76 14.85 20.79 17.82 20.79 20.79 20.79 20.79 17.82 20.79 14.85 23.76 14.85 23.76 11.88 20.79 11.88"/><rect class="b" x="11.88" y="38.61" width="2.97" height="2.97"/><polygon class="b" points="8.91 8.91 11.88 8.91 14.85 8.91 17.82 8.91 20.79 8.91 23.76 8.91 26.73 8.91 29.7 8.91 29.7 5.94 29.7 2.97 26.73 2.97 23.76 2.97 20.79 2.97 17.82 2.97 14.85 2.97 11.88 2.97 8.91 2.97 5.94 2.97 2.97 2.97 2.97 5.94 2.97 8.91 5.94 8.91 8.91 8.91"/><polygon class="b" points="8.91 11.88 5.94 11.88 5.94 14.85 5.94 17.82 8.91 17.82 8.91 14.85 8.91 11.88"/><rect x="11.88" y="35.64" width="2.97" height="2.97"/><rect x="14.85" y="20.79" width="2.97" height="2.97"/><rect x="11.88" y="23.76" width="2.97" height="2.97"/><rect x="11.88" y="26.73" width="2.97" height="2.97"/><rect x="5.94" y="17.82" width="2.97" height="2.97"/><rect x="8.91" y="14.85" width="2.97" height="2.97"/><rect x="8.91" y="11.88" width="2.97" height="2.97"/><rect x="23.76" y="11.88" width="2.97" height="2.97"/><rect x="26.73" y="11.88" width="2.97" height="2.97"/><rect x="20.79" y="17.82" width="2.97" height="2.97"/><rect x="20.79" y="14.85" width="2.97" height="2.97"/><rect x="17.82" y="26.73" width="2.97" height="2.97"/><rect x="17.82" y="23.76" width="2.97" height="2.97"/><rect x="17.82" y="20.79" width="2.97" height="2.97"/><rect x="14.85" y="38.61" width="2.97" height="2.97"/><rect x="14.85" y="35.64" width="2.97" height="2.97"/><rect x="14.85" y="32.67" width="2.97" height="2.97"/><rect x="14.85" y="29.7" width="2.97" height="2.97"/><rect x="11.88" y="41.58" width="2.97" height="2.97"/><rect x="8.91" y="38.61" width="2.97" height="2.97"/><rect x="8.91" y="35.64" width="2.97" height="2.97"/><rect x="8.91" y="32.67" width="2.97" height="2.97"/><rect x="29.7" y="5.94" width="2.97" height="2.97"/><rect x="29.7" y="2.97" width="2.97" height="2.97"/><rect x="26.73" y="8.91" width="2.97" height="2.97"/><rect x="26.73" y="0" width="2.97" height="2.97"/><rect x="23.76" y="8.91" width="2.97" height="2.97"/><rect x="23.76" y="0" width="2.97" height="2.97"/><rect x="20.79" y="8.91" width="2.97" height="2.97"/><rect x="20.79" y="0" width="2.97" height="2.97"/><rect x="17.82" y="8.91" width="2.97" height="2.97"/><rect x="17.82" y="0" width="2.97" height="2.97"/><rect x="14.85" y="8.91" width="2.97" height="2.97"/><rect x="14.85" y="0" width="2.97" height="2.97"/><rect x="11.88" y="8.91" width="2.97" height="2.97"/><rect x="11.88" y="0" width="2.97" height="2.97"/><rect x="8.91" y="8.91" width="2.97" height="2.97"/><rect x="8.91" y="0" width="2.97" height="2.97"/><rect x="5.94" y="29.7" width="2.97" height="2.97"/><rect x="5.94" y="26.73" width="2.97" height="2.97"/><rect x="5.94" y="23.76" width="2.97" height="2.97"/><rect x="5.94" y="20.79" width="2.97" height="2.97"/><rect x="5.94" y="8.91" width="2.97" height="2.97"/><rect x="5.94" y="0" width="2.97" height="2.97"/><rect x="2.97" y="17.82" width="2.97" height="2.97"/><rect x="2.97" y="14.85" width="2.97" height="2.97"/><rect x="2.97" y="11.88" width="2.97" height="2.97"/><rect x="2.97" y="8.91" width="2.97" height="2.97"/><rect x="2.97" y="0" width="2.97" height="2.97"/><rect y="5.94" width="2.97" height="2.97"/><rect y="2.97" width="2.97" height="2.97"/></svg>