<?xml version="1.0" encoding="UTF-8"?><svg id="a" xmlns="http://www.w3.org/2000/svg" viewBox="0 0 44.34 56.43"><rect x="41.48" y="35.64" width="2.97" height="2.97"/><rect x="41.48" y="32.67" width="2.97" height="2.97"/><rect x="41.48" y="29.7" width="2.97" height="2.97"/><rect x="41.48" y="17.82" width="2.97" height="2.97"/><rect x="41.48" y="14.85" width="2.97" height="2.97"/><rect x="38.51" y="35.64" width="2.97" height="2.97"/><rect x="38.51" y="32.67" width="2.97" height="2.97"/><rect x="38.51" y="29.7" width="2.97" height="2.97"/><rect x="38.51" y="17.82" width="2.97" height="2.97"/><rect x="38.51" y="14.85" width="2.97" height="2.97"/><rect x="35.54" y="35.64" width="2.97" height="2.97"/><rect x="35.54" y="20.79" width="2.97" height="2.97"/><rect x="32.57" y="41.58" width="2.97" height="2.97"/><rect x="32.57" y="35.64" width="2.97" height="2.97"/><rect x="32.57" y="23.76" width="2.97" height="2.97"/><rect x="29.59" y="41.58" width="2.98" height="2.97"/><rect x="29.59" y="38.61" width="2.98" height="2.97"/><rect x="29.59" y="26.73" width="2.98" height="2.97"/><rect x="29.59" y="17.82" width="2.98" height="2.97"/><rect x="29.59" y="14.85" width="2.98" height="2.97"/><rect x="29.59" y="11.88" width="2.98" height="2.97"/><rect x="29.59" y="8.91" width="2.98" height="2.97"/><rect x="29.59" y="5.94" width="2.98" height="2.97"/><rect x="26.62" y="41.58" width="2.97" height="2.97"/><rect x="26.62" y="38.61" width="2.97" height="2.97"/><rect x="26.62" y="35.64" width="2.97" height="2.97"/><rect x="26.62" y="32.67" width="2.97" height="2.97"/><rect x="26.62" y="29.7" width="2.97" height="2.97"/><rect x="26.62" y="26.73" width="2.97" height="2.97"/><rect x="26.62" y="20.79" width="2.97" height="2.97"/><rect x="26.62" y="17.82" width="2.97" height="2.97"/><rect x="26.62" y="14.85" width="2.97" height="2.97"/><rect x="26.62" y="11.88" width="2.97" height="2.97"/><rect x="26.62" y="8.91" width="2.97" height="2.97"/><rect x="26.62" y="5.94" width="2.97" height="2.97"/><rect x="26.62" y="2.97" width="2.97" height="2.97"/><rect x="23.65" y="44.55" width="2.97" height="2.97"/><rect x="23.65" y="41.58" width="2.97" height="2.97"/><rect x="23.65" y="38.61" width="2.97" height="2.97"/><rect x="23.65" y="35.64" width="2.97" height="2.97"/><rect x="23.65" y="32.67" width="2.97" height="2.97"/><rect x="23.65" y="29.7" width="2.97" height="2.97"/><rect x="23.65" y="26.73" width="2.97" height="2.97"/><rect x="23.65" y="20.79" width="2.97" height="2.97"/><rect x="23.65" y="17.82" width="2.97" height="2.97"/><rect x="23.65" y="14.85" width="2.97" height="2.97"/><rect x="23.65" y="11.88" width="2.97" height="2.97"/><rect x="23.65" y="8.91" width="2.97" height="2.97"/><rect x="23.65" y="5.94" width="2.97" height="2.97"/><rect x="23.65" y="2.97" width="2.97" height="2.97"/><rect x="23.65" width="2.97" height="2.97"/><rect x="20.68" y="44.55" width="2.97" height="2.97"/><rect x="20.68" y="41.58" width="2.97" height="2.97"/><rect x="20.68" y="38.61" width="2.97" height="2.97"/><rect x="20.68" y="35.64" width="2.97" height="2.97"/><rect x="20.68" y="32.67" width="2.97" height="2.97"/><rect x="20.68" y="29.7" width="2.97" height="2.97"/><rect x="20.68" y="26.73" width="2.97" height="2.97"/><rect x="20.68" y="23.76" width="2.97" height="2.97"/><rect x="20.68" y="20.79" width="2.97" height="2.97"/><rect x="20.68" y="17.82" width="2.97" height="2.97"/><rect x="20.68" y="14.85" width="2.97" height="2.97"/><rect x="20.68" y="11.88" width="2.97" height="2.97"/><rect x="20.68" y="8.91" width="2.97" height="2.97"/><rect x="20.68" y="5.94" width="2.97" height="2.97"/><rect x="20.68" y="2.97" width="2.97" height="2.97"/><rect x="20.68" width="2.97" height="2.97"/><rect x="17.71" y="44.55" width="2.97" height="2.97"/><rect x="17.71" y="38.61" width="2.97" height="2.97"/><rect x="17.71" y="35.64" width="2.97" height="2.97"/><rect x="17.71" y="32.67" width="2.97" height="2.97"/><rect x="17.71" y="29.7" width="2.97" height="2.97"/><rect x="17.71" y="26.73" width="2.97" height="2.97"/><rect x="17.71" y="20.79" width="2.97" height="2.97"/><rect x="17.71" y="17.82" width="2.97" height="2.97"/><rect x="17.71" y="14.85" width="2.97" height="2.97"/><rect x="17.71" y="11.88" width="2.97" height="2.97"/><rect x="17.71" y="8.91" width="2.97" height="2.97"/><rect x="17.71" y="5.94" width="2.97" height="2.97"/><rect x="17.71" y="2.97" width="2.97" height="2.97"/><rect x="17.71" width="2.97" height="2.97"/><rect x="14.74" y="53.46" width="2.97" height="2.97"/><rect x="14.74" y="50.49" width="2.97" height="2.97"/><rect x="14.74" y="47.52" width="2.97" height="2.97"/><rect x="14.74" y="26.73" width="2.97" height="2.97"/><rect x="14.74" y="20.79" width="2.97" height="2.97"/><rect x="14.74" y="14.85" width="2.97" height="2.97"/><rect x="14.74" y="11.88" width="2.97" height="2.97"/><rect x="14.74" y="8.91" width="2.97" height="2.97"/><rect x="14.74" y="5.94" width="2.97" height="2.97"/><rect x="14.74" y="2.97" width="2.97" height="2.97"/><rect x="14.74" width="2.97" height="2.97"/><rect x="11.77" y="53.46" width="2.97" height="2.97"/><rect x="11.77" y="50.49" width="2.97" height="2.97"/><rect x="11.77" y="29.7" width="2.97" height="2.97"/><rect x="11.77" y="20.79" width="2.97" height="2.97"/><rect x="11.77" y="14.85" width="2.97" height="2.97"/><rect x="11.77" y="11.88" width="2.97" height="2.97"/><rect x="11.77" y="8.91" width="2.97" height="2.97"/><rect x="11.77" y="5.94" width="2.97" height="2.97"/><rect x="11.77" y="2.97" width="2.97" height="2.97"/><rect x="11.77" width="2.97" height="2.97"/><rect x="8.8" y="53.46" width="2.97" height="2.97"/><rect x="8.8" y="50.49" width="2.97" height="2.97"/><rect x="8.8" y="35.64" width="2.97" height="2.97"/><rect x="8.8" y="32.67" width="2.97" height="2.97"/><rect x="8.8" y="20.79" width="2.97" height="2.97"/><rect x="8.8" y="14.85" width="2.97" height="2.97"/><rect x="8.8" y="11.88" width="2.97" height="2.97"/><rect x="8.8" y="8.91" width="2.97" height="2.97"/><rect x="8.8" y="5.94" width="2.97" height="2.97"/><rect x="8.8" y="2.97" width="2.97" height="2.97"/><rect x="5.83" y="35.64" width="2.97" height="2.97"/><rect x="5.83" y="32.67" width="2.97" height="2.97"/><rect x="5.83" y="14.85" width="2.97" height="2.97"/><rect x="5.83" y="11.88" width="2.97" height="2.97"/><rect x="5.83" y="8.91" width="2.97" height="2.97"/><rect x="5.83" y="5.94" width="2.97" height="2.97"/><rect x="5.83" y="2.97" width="2.97" height="2.97"/><rect x="2.86" y="14.85" width="2.97" height="2.97"/><rect x="2.86" y="11.88" width="2.97" height="2.97"/><rect x="2.86" y="8.91" width="2.97" height="2.97"/><rect x="2.86" y="5.94" width="2.97" height="2.97"/><rect x="-.11" y="14.85" width="2.97" height="2.97"/><rect x="-.11" y="11.88" width="2.97" height="2.97"/></svg>